<?xml version="1.0" standalone="no"?>
<!DOCTYPE svg PUBLIC "-//W3C//DTD SVG 20010904//EN"
 "http://www.w3.org/TR/2001/REC-SVG-20010904/DTD/svg10.dtd">
<svg version="1.0" xmlns="http://www.w3.org/2000/svg"
 width="512.000000pt" height="512.000000pt" viewBox="0 0 512.000000 512.000000"
 preserveAspectRatio="xMidYMid meet">
<metadata>
Created by potrace 1.14, written by Peter Selinger 2001-2017
</metadata>
<g transform="translate(0.000000,512.000000) scale(0.100000,-0.100000)"
fill="#000000" stroke="none">
<path d="M1005 5109 c-235 -34 -489 -162 -661 -333 -175 -176 -299 -425 -333
-670 -15 -108 -15 -2984 0 -3092 34 -245 158 -494 333 -670 176 -175 425 -299
670 -333 108 -15 2984 -15 3092 0 245 34 494 158 670 333 175 176 299 425 333
670 15 108 15 2984 0 3092 -34 245 -158 494 -333 670 -176 175 -425 299 -670
333 -95 13 -3010 13 -3101 0z m1880 -1894 c127 -27 313 -98 331 -127 4 -6
-105 -254 -122 -276 -1 -2 -33 12 -70 31 -182 91 -368 130 -446 93 -84 -40
-68 -135 32 -185 19 -10 98 -37 175 -60 77 -24 172 -58 210 -76 86 -41 159
-111 194 -185 23 -49 26 -68 26 -165 0 -98 -3 -116 -26 -165 -141 -296 -672
-336 -1051 -78 -32 21 -58 43 -58 49 0 5 29 68 65 139 l65 130 53 -39 c65 -50
221 -124 303 -145 34 -9 92 -16 128 -16 110 0 166 37 166 108 0 58 -57 104
-165 137 -316 94 -408 138 -471 224 -43 61 -59 119 -58 216 1 111 30 182 104
256 104 104 228 148 425 148 69 0 150 -6 190 -14z m-1367 -33 c253 -76 418
-248 466 -484 64 -312 -68 -611 -325 -737 -159 -78 -197 -84 -591 -89 l-348
-4 0 189 0 189 133 56 c72 31 173 70 222 86 50 17 98 33 107 37 14 6 23 -14
58 -124 37 -116 45 -131 64 -131 17 0 63 50 189 208 91 114 189 235 217 269
84 101 100 90 -294 216 -412 133 -387 136 -332 -48 20 -69 39 -132 42 -140 5
-11 -16 -25 -77 -52 -46 -20 -139 -65 -206 -98 l-123 -61 0 374 0 374 363 -4
c337 -4 367 -6 435 -26z m2232 -492 l0 -520 280 0 280 0 0 -150 0 -150 -455 0
-455 0 0 670 0 670 175 0 175 0 0 -520z"/>
</g>
</svg>
