<svg width="0" height="0" viewBox="0 0 0 0" fill="none" xmlns="http://www.w3.org/2000/svg">
  <path id="lg" d="M73.9942 22.68C75.2519 24.36 75.9856 26.565 75.9856 29.295C75.9856 32.025 75.2519 34.335 73.8894 36.225C72.4221 38.115 70.5356 39.585 68.0202 40.53C65.5048 41.475 62.7798 42 59.7404 42C56.3865 42 53.0327 41.37 49.7836 40.215C46.4298 39.06 43.6 37.38 41.1894 35.385L45.2769 27.09C47.2683 28.875 49.6788 30.345 52.5086 31.5C55.3385 32.655 57.749 33.285 59.95 33.285C61.5221 33.285 62.7798 32.97 63.6183 32.445C64.5615 31.815 64.9808 30.975 64.9808 29.925C64.9808 28.98 64.6663 28.245 63.9327 27.615C63.3038 26.985 62.4654 26.46 61.4173 26.145C60.3692 25.83 59.0067 25.305 57.1202 24.885C54.3952 24.15 52.0894 23.31 50.3077 22.575C48.526 21.735 46.9538 20.58 45.6962 19.005C44.4385 17.43 43.8096 15.225 43.8096 12.6C43.8096 10.08 44.4385 7.875 45.801 5.985C47.1635 4.095 49.05 2.625 51.4606 1.575C53.8712 0.525 56.701 0 59.95 0C62.8846 0 65.7144 0.42 68.5442 1.26C71.2692 1.995 73.7846 3.045 75.9856 4.515L72.0029 12.915C69.8019 11.655 67.601 10.605 65.0856 9.765C62.675 8.925 60.5788 8.505 58.9019 8.505C57.6442 8.505 56.5961 8.715 55.8625 9.24C55.1288 9.765 54.7096 10.395 54.7096 11.34C54.7096 12.18 55.024 13.02 55.6529 13.545C56.2817 14.175 57.1202 14.595 58.0635 15.015C59.0067 15.33 60.474 15.855 62.3606 16.38C65.1904 17.22 67.4961 17.955 69.2779 18.795C71.1644 19.74 72.7365 21 73.9942 22.68ZM91.9163 32.235V0.735H81.3308V41.265H109V32.235H91.9163ZM36.1586 10.395C34.3769 7.35 31.8615 4.935 28.6125 3.255C25.3635 1.575 21.5904 0.735 17.3981 0.735H0V23.415C0.314423 23.205 0.628846 23.1 0.943269 22.89C4.71635 20.895 8.59423 19.11 12.4721 17.43L10.0615 9.345C9.85192 8.505 10.5856 7.77 11.424 8.085L31.0231 14.385C31.7567 14.595 31.9663 15.435 31.5471 16.065L27.9837 20.37L23.5817 25.83L18.6558 32.025C18.1317 32.655 17.0837 32.445 16.874 31.71L16.0356 28.77L14.5683 24.36C14.149 24.465 13.625 24.675 13.2058 24.885C12.7865 24.99 12.2625 25.2 11.8433 25.305C11.424 25.41 11.0048 25.62 10.5856 25.725C10.0615 25.935 9.5375 26.145 9.01346 26.25C8.48942 26.46 7.96538 26.67 7.44135 26.88C7.02212 26.985 6.70769 27.195 6.28846 27.3C5.34519 27.72 4.40192 28.035 3.56346 28.455C2.93462 28.77 2.30577 28.98 1.67692 29.295C1.15288 29.505 0 30.03 0 30.03V34.23V41.265H16.9788C21.276 41.265 25.049 40.425 28.4029 38.745C31.7567 37.065 34.2721 34.65 36.1586 31.605C37.9404 28.56 38.8837 24.99 38.8837 21C38.8837 17.01 38.0452 13.44 36.1586 10.395Z" />
  <path id="sm" d="M37.5388 10.5704C35.6891 7.41492 33.0777 4.91233 29.7047 3.1714C26.3316 1.43046 22.4145 0.559998 18.0622 0.559998H0V24.0626C0.326425 23.845 0.65285 23.7362 0.979274 23.5185C4.89637 21.4512 8.92228 19.6014 12.9482 17.8605L10.4456 9.48228C10.228 8.61181 10.9896 7.85015 11.8601 8.17658L32.2072 14.7051C32.9689 14.9227 33.1865 15.7932 32.7513 16.446L29.0518 20.9071L24.4819 26.5652L19.3679 32.9849C18.8238 33.6377 17.7358 33.4201 17.5181 32.6584L16.6477 29.6118L15.1244 25.0419C14.6891 25.1507 14.1451 25.3683 13.7098 25.5859C13.2746 25.6947 12.7306 25.9123 12.2953 26.0211C11.8601 26.1299 11.4249 26.3476 10.9896 26.4564C10.4456 26.674 9.90155 26.8916 9.35751 27.0004C8.81347 27.218 8.26943 27.4356 7.72539 27.6533C7.29016 27.7621 6.96373 27.9797 6.5285 28.0885C5.54922 28.5237 4.56995 28.8502 3.69948 29.2854C3.04663 29.6118 2.39378 29.8294 1.74093 30.1558C1.19689 30.3735 0 30.9175 0 30.9175V35.2698V42.56H17.6269C22.0881 42.56 26.0052 41.6895 29.487 39.9486C32.9689 38.2077 35.5803 35.7051 37.5388 32.5496C39.3886 29.3942 40.3679 25.6947 40.3679 21.56C40.3679 17.4253 39.4974 13.7258 37.5388 10.5704Z" fill="white"/>
</svg>
